Coordinates																															
version=1																															
nRows=25																															
nColumns=32																															
inDegrees=no																															
																															
"Units are S.I. units (second, meters, Newtons, ...)"																															
"If the header above contains a line with 'inDegrees', this indicates whether rotational values are in degrees (yes) or radians (no)."																															
																															
endheader																															
time	pelvis_tilt	pelvis_list	pelvis_rotation	pelvis_tx	pelvis_ty	pelvis_tz	hip_flexion_r	hip_adduction_r	hip_rotation_r	knee_angle_r	ankle_angle_r	subtalar_angle_r	mtp_angle_r	hip_flexion_l	hip_adduction_l	hip_rotation_l	knee_angle_l	ankle_angle_l	subtalar_angle_l	mtp_angle_l	lumbar_extension	lumbar_bending	lumbar_rotation	arm_flex_r	arm_add_r	arm_rot_r	elbow_flex_r	arm_flex_l	arm_add_l	arm_rot_l	elbow_flex_l
0	-0.15376902	0.08331779	-0.031696605	0.640171944	0.907929532	0.482800605	0.736645942	-0.057443335	-0.153997961	0.297869577	0.138779811	0.088532187	-0.015573808	-0.120965853	0.095047767	0.093297184	0.19625639	0.309497445	-0.000103863	-0.317881344	-0.062359776	-0.063343906	-0.134608312	-0.05259886	-0.173179724	-0.112025835	0.517711932	0.353770889	-0.437314589	0.109164199	1.231267563
0.010642857	-0.153462746	0.072883324	-0.034211863	0.64108422	0.905887686	0.484120579	0.734622805	-0.043457968	-0.161121906	0.293994757	0.136847812	0.084732709	-0.026310993	-0.140031145	0.081345593	0.084451464	0.196732533	0.307654479	0.015870194	-0.351863043	-0.061029901	-0.054398149	-0.133154534	-0.054485435	-0.172286317	-0.116294381	0.525555844	0.357023221	-0.442083705	0.106557713	1.237843697
0.021285714	-0.151958511	0.062034004	-0.036806863	0.642466209	0.904046941	0.485485946	0.731441953	-0.029237758	-0.163661895	0.299759007	0.137545432	0.074269418	-0.035444849	-0.157414643	0.067517313	0.07424482	0.202872318	0.300265236	0.029676654	-0.388984961	-0.059913635	-0.04487839	-0.131561813	-0.057338589	-0.171304735	-0.120114943	0.532367894	0.357160152	-0.445683019	0.105025919	1.240079833
0.031928571	-0.149083548	0.05110185	-0.039262792	0.644435048	0.902435173	0.486858532	0.726750274	-0.015302217	-0.16013206	0.317034537	0.142076727	0.05797543	-0.043901952	-0.172288989	0.054346973	0.063441481	0.21681049	0.288261734	0.039122467	-0.429473304	-0.058961275	-0.035082393	-0.130023832	-0.061410768	-0.170335525	-0.123609942	0.537915951	0.353125356	-0.447709493	0.104821348	1.236605597
0.042571429	-0.145025602	0.040286278	-0.04158533	0.646964484	0.901044357	0.488233454	0.720365392	-0.001640094	-0.151290587	0.343449972	0.151216493	0.038498729	-0.051666707	-0.183976165	0.042073261	0.052007165	0.239610717	0.272797319	0.043439369	-0.47211502	-0.058038563	-0.025234228	-0.128535937	-0.066292362	-0.169466932	-0.126794743	0.542299315	0.345020926	-0.448028627	0.10571541	1.227343596
0.053214286	-0.14014763	0.029635997	-0.043960396	0.649954041	0.899854527	0.489635472	0.712164711	0.012188258	-0.139238964	0.374244901	0.165526777	0.019190442	-0.057872334	-0.191843369	0.030482339	0.039189996	0.271840593	0.254693877	0.042861032	-0.514889656	-0.05697312	-0.015439106	-0.126929125	-0.071163391	-0.168764237	-0.12956742	0.545789719	0.333607334	-0.446637591	0.107203875	1.212901558
0.063857143	-0.134678789	0.018963394	-0.046640508	0.653307932	0.898882516	0.491097334	0.702027056	0.026626148	-0.126155249	0.405537662	0.183526597	0.002176993	-0.061420053	-0.195731163	0.019096981	0.024311648	0.313159284	0.23432661	0.037735724	-0.554033598	-0.05576846	-0.005548845	-0.12497781	-0.075275453	-0.168261094	-0.131857798	0.548618226	0.319594621	-0.443592561	0.108834033	1.19386371
0.0745	-0.128586115	0.007635699	-0.049998305	0.656942187	0.898215853	0.492665892	0.689831659	0.042107314	-0.114311742	0.435215851	0.199844317	-0.012779536	-0.060801215	-0.19638172	0.006954803	0.006861887	0.361511477	0.211231094	0.028591705	-0.582487797	-0.054765231	0.005063711	-0.122354791	-0.078032598	-0.167931686	-0.133660815	0.550931609	0.303571157	-0.439057227	0.110262139	1.17074296
0.085142857	-0.121808309	-0.005022983	-0.054409787	0.660774297	0.897949077	0.494388556	0.675461651	0.059053932	-0.10597189	0.461392186	0.208735854	-0.026177836	-0.054490456	-0.19462943	-0.006954083	-0.013631704	0.414664782	0.184833934	0.015960114	-0.592915442	-0.054339121	0.017072202	-0.118730066	-0.078863495	-0.16774373	-0.134978265	0.552865504	0.286109789	-0.433207448	0.111163323	1.144043323
0.095785714	-0.114339807	-0.019347888	-0.059752188	0.664728212	0.898130776	0.496262373	0.658989524	0.077372777	-0.102443353	0.483466464	0.207652178	-0.038267323	-0.042405806	-0.190858889	-0.023293281	-0.036711808	0.471158138	0.153845751	-0.0004811	-0.582539025	-0.054724793	0.030788224	-0.114197719	-0.077564285	-0.167675794	-0.135789073	0.554473985	0.26769283	-0.42622325	0.111538432	1.114225841
0.106428571	-0.106255018	-0.035185457	-0.065187094	0.668737153	0.898743601	0.498212114	0.640759475	0.096231105	-0.103662384	0.50268525	0.198628679	-0.048939751	-0.026536346	-0.184809293	-0.042229529	-0.060587084	0.530637218	0.115949843	-0.022278188	-0.555122957	-0.05595456	0.046003889	-0.109460327	-0.074458381	-0.167722017	-0.136039345	0.555694092	0.24867269	-0.418290624	0.111855667	1.081689904
0.117071429	-0.097635087	-0.052342841	-0.069821349	0.672734973	0.899764826	0.500157021	0.621135979	0.114740577	-0.109455273	0.520433009	0.184063251	-0.058058596	-0.009028058	-0.176168237	-0.063888791	-0.083364026	0.592836212	0.068764336	-0.051062305	-0.514935547	-0.058044046	0.06246953	-0.105266718	-0.069910118	-0.167877802	-0.135672706	0.556453969	0.229392429	-0.409595767	0.112618754	1.046830957
0.127714286	-0.088636221	-0.070422369	-0.072838121	0.676644548	0.901133945	0.502023118	0.600386764	0.132222747	-0.11911197	0.537444213	0.167461341	-0.065401639	8.40E-03	-0.16439099	-0.088076212	-0.103274198	0.657890945	0.011824024	-0.08715718	-0.466021305	-0.060867611	0.079715368	-0.102261323	-0.064307859	-0.168146812	-0.134639922	0.55670158	0.210287836	-0.400289978	0.114251876	1.010155719
0.138357143	-0.079564713	-0.088616824	-0.073573194	0.680366806	0.902714901	0.503749999	0.578586087	0.148418882	-0.130849976	0.553153632	0.15454304	-0.070575316	0.024869416	-0.14846825	-0.113955458	-0.118799275	0.726740407	-0.051503768	-0.128272232	-0.411977193	-0.064017138	0.096831492	-0.100879811	-0.058088002	-0.168549234	-0.132906035	0.556424521	0.191980111	-0.390454771	0.117020153	0.97239339
0.149	-0.070744347	-0.106070542	-0.071382579	0.683800153	0.904362839	0.505278964	0.555785055	0.163120371	-0.142760592	0.566841538	0.151277899	-0.073167933	0.039618052	-0.127338501	-0.140612294	-0.128452462	0.800412753	-0.117388962	-0.171802441	-0.356337318	-0.067051535	0.112856153	-0.101531277	-0.051692448	-0.169107214	-0.130438212	0.555615125	0.175111408	-0.380163335	0.121169369	0.93429911
0.159642857	-0.062413409	-0.121995303	-0.066099467	0.686864583	0.905977516	0.506572003	0.532005036	0.17615956	-0.153266232	0.577829189	0.160376851	-0.07329116	0.052373498	-0.100650081	-0.166773284	-0.131154645	0.878455371	-0.180465214	-0.214377446	-0.30041689	-0.069678149	0.126952265	-0.104224328	-0.04551392	-0.169841634	-0.127301369	0.554270217	0.160066522	-0.369483349	0.1268502	0.896503813
0.170285714	-0.054615833	-0.135756205	-0.058641759	0.689529162	0.907560098	0.507638149	0.507199795	0.187461902	-0.161541983	0.585531024	0.177143458	-0.07224635	0.063998509	-6.97E-02	-0.190348464	-0.126753456	0.95704961	-0.231873994	-0.25088713	-0.240487211	-0.071941758	0.138566123	-0.108057199	-0.039833344	-0.170770504	-0.123782624	0.552396832	0.146645231	-0.358469977	0.133997142	0.85935608
0.180928571	-0.047372609	-0.146752121	-0.050071516	0.691770703	0.909126746	0.508492865	0.481334892	0.196954489	-0.166907573	0.589416012	0.195983198	-0.071438102	0.075438351	-0.035844359	-0.209176806	-0.115288431	1.031990485	-0.262582457	-0.27617119	-0.172519471	-0.073932744	0.147196605	-0.112011295	-0.034904928	-0.171910746	-0.120184775	0.550006201	0.134562755	-0.347177106	0.142515419	0.823158334
0.191571429	-0.040786061	-0.154643151	-0.041331167	0.693586053	0.910713948	0.509150209	0.454814641	0.204331372	-0.169525569	0.589817675	0.213911895	-0.071000851	0.086100459	-0.000157456	-0.221964865	-0.098123641	1.100711009	-0.269958425	-0.289018864	-0.100726362	-0.07572006	0.15262096	-0.115254847	-0.030748942	-0.173264993	-0.116498562	0.547167328	0.123457491	-0.335668075	0.152322921	0.788064914
0.202214286	-0.035033298	-0.159358069	-0.033243293	0.694990646	0.912377631	0.509624334	0.428443808	0.209097649	-0.170332721	0.587875084	0.230393595	-0.069895307	0.093997628	0.036896204	-0.228292607	-0.077871777	1.162237438	-0.25743158	-0.291971357	-0.036801048	-0.077350743	0.154899362	-0.117137044	-0.027161845	-0.174823038	-0.112430194	0.544004981	0.112908245	-0.324015028	0.163339665	0.754093339
0.212857143	-0.030246768	-0.161374365	-0.026454225	0.695993124	0.914180888	0.509963627	0.402716447	0.211498312	-0.169791538	0.584511862	0.244638305	-0.067632357	0.098442537	0.074961894	-0.229102507	-0.057163217	1.216808406	-0.229233637	-0.288344758	0.014408552	-0.078829938	0.154594585	-0.117130236	-0.02385759	-0.176589959	-0.107914915	0.540676037	0.10280222	-0.312287524	0.175249153	0.721324619
0.2235	-0.026497785	-0.161501069	-0.021305749	0.696609065	0.916181374	0.51022234	0.377919506	0.212188576	-0.168243356	0.58030118	0.255427299	-0.064302788	0.099228169	0.113653911	-0.226044572	-0.037934897	1.264554651	-0.189420697	-0.281647637	0.052956201	-0.080134395	0.15256409	-0.114956228	-0.020642562	-0.178605031	-0.103126294	0.53731925	0.093168855	-0.300549752	0.187662929	0.689843677
0.234142857	-0.02384208	-0.160335069	-0.017893356	0.696864514	0.918404815	0.510421853	0.35457763	0.21157967	-0.166191782	0.575768904	0.261526498	-0.060492733	0.095643399	0.152450882	-0.220125144	-0.021019098	1.304074252	-0.140712904	-0.274704546	0.076737423	-0.081250837	0.14945664	-0.110584782	-0.017559141	-0.180936565	-0.098135657	0.534036543	0.08385921	-0.288854479	0.200334193	0.659742266
0.244785714	-0.022364456	-0.158637835	-0.016257459	0.696768981	0.920849235	0.510598753	0.333251565	0.210538529	-0.163384252	0.571465564	0.262201739	-0.057499612	0.0883533	0.191003288	-0.212798922	-0.007165272	1.334386479	-0.086428716	-0.270654309	0.086157049	-0.082143337	0.146078139	-0.104039026	-0.014627302	-0.183654549	-0.092916038	0.530982626	0.07483477	-0.277236193	0.212886842	0.631261088
0.255428571	-0.022049231	-0.157013325	-0.016342417	0.6963164	0.923476142	0.510782254	0.314188182	0.209831912	-0.1594899	0.56768513	0.257582305	-0.056349664	0.078152298	0.229130258	-0.205418018	0.003281248	1.355004085	-0.030236309	-0.270543277	0.084038201	-0.08291393	0.143056923	-0.095432356	-0.011804389	-0.186834274	-0.087567646	0.528365513	0.066124388	-0.265739637	0.225039762	0.604665513
